<?xml version="1.0" encoding="utf-8"?>
<!-- Generator: Adobe Illustrator 23.0.0, SVG Export Plug-In . SVG Version: 6.00 Build 0)  -->
<svg version="1.1" id="Layer_1" xmlns="http://www.w3.org/2000/svg" xmlns:xlink="http://www.w3.org/1999/xlink" x="0px" y="0px"
	 viewBox="0 0 80 81.7" style="enable-background:new 0 0 80 81.7;" xml:space="preserve">
<style type="text/css">
	.st0{fill:url(#SVGID_1_);}
	.st1{fill:#FFFFFF;}
	.st2{fill:url(#SVGID_2_);}
	.st3{fill:url(#SVGID_3_);}
	.st4{fill:url(#SVGID_4_);}
	.st5{fill:#1E1E1E;stroke:#FFFFFF;stroke-width:3;stroke-linecap:round;stroke-linejoin:round;stroke-miterlimit:10;}
</style>
<g>
	<g>
		<g id="Tripod">
			
				<linearGradient id="SVGID_1_" gradientUnits="userSpaceOnUse" x1="33.8034" y1="42.1" x2="33.8034" y2="-0.7511" gradientTransform="matrix(1 0 0 -1 0 79.4)">
				<stop  offset="6.038340e-07" style="stop-color:#F80D8E"/>
				<stop  offset="0.1521" style="stop-color:#E61193"/>
				<stop  offset="0.4589" style="stop-color:#B61C9E"/>
				<stop  offset="0.8889" style="stop-color:#692DB1"/>
				<stop  offset="1" style="stop-color:#5432B6"/>
			</linearGradient>
			<path class="st0" d="M33.9,80.2c-2.5,0-4-1.5-4-4.2c0-5.8,0-11.5,0-17.3v-2.4l-3.1,4.9L23.2,67c-2,3.2-4,6.4-6.1,9.7
				c-0.9,1.4-2,2.1-3.2,2.1c-0.7,0-1.5-0.2-2.3-0.8c-1.1-0.7-1.7-1.5-2-2.4s0-2,0.7-3.1c1.5-2.4,3-4.7,4.4-7.1l4.3-6.9
				c2.6-4.1,5.1-8.2,7.7-12.3c0.1-0.1,0.1-0.2,0.1-0.2c-0.2-0.3-0.3-0.5-0.4-0.7c-0.5-1.3-0.9-2.7-0.3-3.8c0.6-1.2,1.9-1.6,3.1-1.9
				c0.9-0.2,1.9-0.5,2.8-0.7c2-0.5,3.9-1,5.9-1.5c0.3-0.1,0.6-0.1,0.8-0.1c0.7,0,1.6,0.3,2.2,1.6c1.1,2.4,1.1,4.7,0,6.9
				c-0.1,0.3-0.1,0.3,0.1,0.7c5.5,8.7,10.9,17.3,16.3,26c0.7,1.2,1,2.3,0.7,3.3s-1,1.8-2.2,2.5c-0.7,0.4-1.4,0.6-2.1,0.6
				c-1.3,0-2.4-0.7-3.2-2.1c-2.3-3.6-4.5-7.2-6.8-10.8c0,0-5.3-8.4-6.1-9.7v5.5c0,4.8,0,9.6,0,14.4C37.9,78.7,36.4,80.2,33.9,80.2
				L33.9,80.2z"/>
			<path class="st1" d="M38.9,38.8c0.4,0,0.6,0.2,0.9,0.7c0.9,1.9,1,3.7,0,5.5c-0.4,0.9-0.3,1.4,0.2,2.2c5.5,8.7,10.9,17.3,16.3,26
				c1,1.6,0.7,2.7-0.9,3.7c-0.5,0.3-0.9,0.4-1.3,0.4c-0.7,0-1.4-0.5-2-1.4c-3.3-5.3-6.6-10.6-9.9-15.8c-1.6-2.5-3.1-5-4.7-7.5
				c-0.2-0.3-0.4-0.6-0.9-0.9c0,0.5-0.1,0.9-0.1,1.4c0,7.7,0,15.4,0,23c0,1.8-0.8,2.6-2.5,2.6l0,0c-1.7,0-2.5-0.9-2.5-2.7
				c0-7.7,0-15.4,0-23c0-0.4,0-0.8,0-1.3c-0.1,0-0.2,0-0.3-0.1c-1.8,2.9-3.7,5.9-5.5,8.8c-3.2,5.1-6.4,10.3-9.7,15.4
				c-0.6,1-1.2,1.4-2,1.4c-0.5,0-1-0.2-1.5-0.5c-1.5-0.9-1.7-1.9-0.8-3.4c2.1-3.4,4.2-6.8,6.4-10.2c3.4-5.4,6.7-10.8,10.1-16.1
				c0.4-0.6,0.6-1.2,0.1-1.8c-0.1-0.2-0.2-0.4-0.2-0.5c-0.9-2.4-0.6-3,1.8-3.6c2.9-0.7,5.8-1.4,8.7-2.2
				C38.6,38.8,38.8,38.8,38.9,38.8 M38.9,35.8c-0.4,0-0.8,0.1-1.2,0.2c-1.9,0.5-3.9,1-5.8,1.4c-1,0.2-1.9,0.5-2.9,0.7
				c-1.1,0.3-3.1,0.8-4.1,2.6c-1,1.9-0.2,3.9,0.2,5v0.1c0,0,0,0.1,0.1,0.1c-2.5,3.9-5,7.9-7.4,11.8l-2.4,3.8l-1.9,3
				c-1.5,2.4-3,4.8-4.5,7.2c-0.9,1.4-1.2,2.8-0.9,4.2c0.3,1.3,1.2,2.5,2.6,3.4c1.1,0.7,2.1,1,3.1,1c1.2,0,3-0.5,4.5-2.8
				c2-3.2,4-6.4,6-9.6L28,62c0.1-0.2,0.2-0.4,0.3-0.5c0,4.8,0,9.7,0,14.5c0,3.4,2.1,5.6,5.4,5.7h0.1c3.4,0,5.4-2.2,5.5-5.6
				c0-4.8,0-9.5,0-14.3v-0.3l0.1,0.2l2.9,4.7c2.3,3.7,4.7,7.4,7,11.2c1.5,2.3,3.3,2.8,4.5,2.8c0.9,0,1.9-0.3,2.8-0.8
				c1.6-0.9,2.5-2,2.9-3.4s0.1-2.9-0.9-4.4c-5.2-8.4-10.7-17-16.1-25.7c1.1-2.4,1-5.1-0.2-7.7C41.5,36.1,39.8,35.8,38.9,35.8
				L38.9,35.8z"/>
		</g>
		<g id="Small_Segment">
			
				<linearGradient id="SVGID_2_" gradientUnits="userSpaceOnUse" x1="7.4092" y1="56.9624" x2="12.0527" y2="39.6324" gradientTransform="matrix(1 0 0 -1 0 79.4)">
				<stop  offset="0" style="stop-color:#FF3399"/>
				<stop  offset="0.1468" style="stop-color:#ED339C"/>
				<stop  offset="0.4428" style="stop-color:#BC33A4"/>
				<stop  offset="0.8576" style="stop-color:#7032B1"/>
				<stop  offset="1" style="stop-color:#5432B6"/>
			</linearGradient>
			<path class="st2" d="M7.8,40.6c-1.2,0-2.2-0.5-3-1.5C2.1,35.4,1,31.2,1.7,26.5c0.2-1.7,1.4-2.9,3.2-3.3c2.3-0.5,4.5-1.1,6.9-1.6
				l2-0.5c0.1,0,0.2,0,0.4,0c0.3,0,0.7,0.1,0.9,0.3c0.4,0.3,0.6,0.7,0.6,1.2c0,5,1.1,9.5,3.3,13.5c0.2,0.4,0.2,0.9,0.1,1.3
				c-0.2,0.4-0.6,0.7-1,0.9l-8.9,2.2C8.6,40.5,8.2,40.6,7.8,40.6z"/>
			<path class="st1" d="M14.1,22.5c0,5.1,1.1,9.8,3.5,14.3L8.7,39c-0.3,0.1-0.6,0.1-0.9,0.1c-0.7,0-1.3-0.3-1.8-0.9
				c-2.6-3.4-3.4-7.3-2.8-11.5c0.2-1.1,0.8-1.8,2-2.1C8.1,23.9,11,23.2,14.1,22.5 M14.1,19.5c-0.2,0-0.5,0-0.7,0.1l-2,0.5
				c-2.3,0.6-4.6,1.1-6.9,1.6c-2.4,0.6-4,2.2-4.3,4.6C-0.5,31.4,0.6,36,3.6,40c1,1.4,2.5,2.1,4.2,2.1c0.5,0,1.1-0.1,1.6-0.2l8.9-2.2
				c0.9-0.2,1.6-0.9,2-1.7s0.3-1.8-0.1-2.6c-2.1-3.9-3.1-8-3.1-12.8c0-0.9-0.4-1.8-1.1-2.3C15.4,19.7,14.7,19.5,14.1,19.5L14.1,19.5
				z"/>
		</g>
		<g id="Medium_Segment">
			
				<linearGradient id="SVGID_3_" gradientUnits="userSpaceOnUse" x1="23.2311" y1="64.2143" x2="29.5867" y2="40.495" gradientTransform="matrix(1 0 0 -1 0 79.4)">
				<stop  offset="0" style="stop-color:#FF3399"/>
				<stop  offset="0.1468" style="stop-color:#ED339C"/>
				<stop  offset="0.4428" style="stop-color:#BC33A4"/>
				<stop  offset="0.8576" style="stop-color:#7032B1"/>
				<stop  offset="1" style="stop-color:#5432B6"/>
			</linearGradient>
			<path class="st3" d="M23.9,40c-1.4,0-2.7-0.6-3.5-1.8c-1-1.3-2-2.9-2.8-4.6c-2-4.6-2.6-8.9-1.8-13.2c0.4-2.3,1.8-3.8,4.2-4.3
				c2.8-0.6,5.5-1.3,8.4-2c1.2-0.3,2.4-0.6,3.6-0.9c0.1,0,0.2,0,0.4,0c0.3,0,0.7,0.1,1,0.4c0.4,0.3,0.6,0.8,0.5,1.2
				C33.4,22,35,28.4,38.8,34.5c0.3,0.4,0.3,0.9,0.1,1.4c-0.2,0.4-0.6,0.8-1,0.9L35,37.5c-0.9,0.2-1.9,0.5-2.8,0.7
				c-2.2,0.5-4.5,1.1-6.7,1.7C24.8,40,24.3,40,23.9,40z"/>
			<path class="st1" d="M32.2,14.7c-0.5,7.5,1.2,14.2,5.1,20.6c-1,0.3-1.9,0.5-2.9,0.7c-3.2,0.8-6.4,1.5-9.5,2.4
				c-0.4,0.1-0.7,0.2-1.1,0.2c-1,0-1.7-0.4-2.3-1.2c-1-1.3-1.9-2.8-2.6-4.3c-1.7-4-2.5-8.1-1.7-12.4c0.3-1.7,1.2-2.7,3-3.1
				C24.2,16.7,28.1,15.7,32.2,14.7 M32.2,11.7c-0.2,0-0.5,0-0.7,0.1c-1.2,0.3-2.4,0.6-3.6,0.9c-2.9,0.7-5.6,1.4-8.4,2
				c-3,0.6-4.8,2.5-5.3,5.5c-0.8,4.6-0.2,9.2,1.9,14.1c0.8,1.8,1.9,3.5,2.9,4.9c1.2,1.6,2.9,2.5,4.8,2.5c0.6,0,1.2-0.1,1.9-0.3
				c2.2-0.6,4.4-1.1,6.6-1.7c0.9-0.2,1.9-0.5,2.8-0.7c0.6-0.2,1.3-0.3,1.9-0.5l0.9-0.2c0.9-0.2,1.7-0.9,2.1-1.8s0.3-1.9-0.2-2.7
				c-3.6-5.8-5.1-12-4.7-18.9c0.1-1-0.3-1.9-1.1-2.5C33.6,11.9,32.9,11.7,32.2,11.7L32.2,11.7z M32.2,17.7L32.2,17.7L32.2,17.7
				L32.2,17.7z"/>
		</g>
		<g id="Large_Segment">
			
				<linearGradient id="SVGID_4_" gradientUnits="userSpaceOnUse" x1="52.1113" y1="74.4832" x2="60.0045" y2="45.0254" gradientTransform="matrix(1 0 0 -1 0 79.4)">
				<stop  offset="0" style="stop-color:#FF3399"/>
				<stop  offset="0.1468" style="stop-color:#ED339C"/>
				<stop  offset="0.4428" style="stop-color:#BC33A4"/>
				<stop  offset="0.8576" style="stop-color:#7032B1"/>
				<stop  offset="1" style="stop-color:#5432B6"/>
			</linearGradient>
			<path class="st4" d="M43.6,37.8c-1.6,0-3-0.7-4-2s-2-2.6-2.7-4.1c-2-3.8-3.4-9-3.6-14c0-3.2,0.3-4.3,0.7-5.5v-0.1
				c0.4-1.6,1.9-2.9,4-3.4c10.4-2.5,19.9-4.8,28.9-7.1c0.4-0.1,0.8-0.2,1.2-0.2c1.1,0,2,0.4,2.8,1.2c7,7.1,9.1,15.6,6.2,25.2
				c-0.4,1.4-1.5,2.3-3.1,2.7c-9.6,2.3-19.2,4.7-28.9,7C44.6,37.7,44.1,37.8,43.6,37.8z M69.7,8c-1,5.4,0.5,11.5,3.8,15.5
				C74.5,18.8,73.2,12.4,69.7,8z"/>
			<path class="st1" d="M68,3c0.7,0,1.2,0.3,1.8,0.8c6.6,6.7,8.6,14.6,5.8,23.7c-0.3,1-1.1,1.5-2,1.7c-9.6,2.3-19.2,4.7-28.9,7
				c-0.4,0.1-0.8,0.1-1.2,0.1c-1.1,0-2.1-0.4-2.8-1.4c-0.9-1.2-1.9-2.5-2.6-3.9c-2.1-3.9-3.2-9-3.5-13.4c0-3,0.3-4,0.6-5.1
				c0.3-1.2,1.6-2,2.9-2.4c9.7-2.3,19.3-4.7,29-7.1C67.5,3.1,67.8,3,68,3 M74.3,26.4c2.4-5.8,0.8-15.9-5.3-21.3
				C66.4,12.5,68.9,21.8,74.3,26.4 M68,0L68,0c-0.5,0-1,0.1-1.6,0.2c-9,2.2-18.5,4.5-28.9,7.1c-2.6,0.6-4.5,2.3-5.1,4.5v0.1
				c-0.3,1.2-0.7,2.5-0.7,5.8c0,0.1,0,0.1,0,0.2c0.3,5.3,1.7,10.6,3.8,14.7c0.8,1.6,1.9,3,2.9,4.3c1.3,1.6,3.1,2.6,5.2,2.6
				c0.6,0,1.2-0.1,1.9-0.2c10.4-2.5,20.9-5,28.9-7c2.7-0.7,3.7-2.4,4.2-3.7C81.7,18.5,79.5,9.5,72,1.9C70.8,0.6,69.5,0,68,0L68,0z
				 M72.2,18c-0.5-1.4-0.9-2.9-1.1-4.4C71.6,15.1,72,16.6,72.2,18L72.2,18z"/>
		</g>
	</g>
	<rect x="70.8" y="14.1" class="st5" width="1.6" height="3.7"/>
</g>
</svg>
