<?xml version="1.0" encoding="utf-8"?>
<!-- Generator: Adobe Illustrator 23.0.0, SVG Export Plug-In . SVG Version: 6.00 Build 0)  -->
<svg version="1.1" id="Layer_1" xmlns="http://www.w3.org/2000/svg" xmlns:xlink="http://www.w3.org/1999/xlink" x="0px" y="0px"
	 viewBox="0 0 500 320" style="enable-background:new 0 0 500 320;" xml:space="preserve">
<style type="text/css">
	.st0{fill:url(#Tripod_1_);}
	.st1{fill:url(#Large_Segment_1_);}
	.st2{fill:url(#Medium_Segment_1_);}
	.st3{fill:url(#Small_Segment_1_);}
</style>
<g>
	<linearGradient id="Tripod_1_" gradientUnits="userSpaceOnUse" x1="244.5192" y1="158.118" x2="244.5192" y2="197.9686">
		<stop  offset="6.038340e-07" style="stop-color:#F80D8E"/>
		<stop  offset="0.1521" style="stop-color:#E61193"/>
		<stop  offset="0.4589" style="stop-color:#B61C9E"/>
		<stop  offset="0.8889" style="stop-color:#692DB1"/>
		<stop  offset="1" style="stop-color:#5432B6"/>
	</linearGradient>
	<path id="Tripod" class="st0" d="M241.7,170.9c-1.8,2.9-3.7,5.9-5.5,8.8c-3.2,5.1-6.4,10.3-9.7,15.4c-1,1.6-2,1.8-3.5,0.9
		c-1.5-0.9-1.7-1.9-0.8-3.4c2.1-3.4,4.2-6.8,6.4-10.2c3.4-5.4,6.7-10.8,10.1-16.1c0.4-0.6,0.6-1.2,0.1-1.8c-0.1-0.2-0.2-0.4-0.2-0.5
		c-0.9-2.4-0.6-3,1.8-3.6c2.9-0.7,5.8-1.4,8.7-2.2c0.7-0.2,1,0,1.3,0.6c0.9,1.9,1,3.7,0,5.5c-0.4,0.9-0.3,1.4,0.2,2.2
		c5.5,8.7,10.9,17.3,16.3,26c1,1.6,0.7,2.7-0.9,3.7c-1.4,0.8-2.4,0.5-3.3-1c-3.3-5.3-6.6-10.6-9.9-15.8c-1.6-2.5-3.1-5-4.7-7.5
		c-0.2-0.3-0.4-0.6-0.9-0.9c0,0.5-0.1,0.9-0.1,1.4c0,7.7,0,15.4,0,23c0,1.8-0.8,2.6-2.5,2.6c-1.7,0-2.5-0.9-2.5-2.7
		c0-7.7,0-15.4,0-23c0-0.4,0-0.8,0-1.3C241.9,171,241.8,170.9,241.7,170.9z"/>
	<linearGradient id="Large_Segment_1_" gradientUnits="userSpaceOnUse" x1="263.0325" y1="126.7041" x2="270.1493" y2="153.2644">
		<stop  offset="0" style="stop-color:#FF3399"/>
		<stop  offset="0.1468" style="stop-color:#ED339C"/>
		<stop  offset="0.4428" style="stop-color:#BC33A4"/>
		<stop  offset="0.8576" style="stop-color:#7032B1"/>
		<stop  offset="1" style="stop-color:#5432B6"/>
	</linearGradient>
	<path id="Large_Segment" class="st1" d="M245.3,137.9c0-3,0.3-4,0.6-5.1c0.3-1.2,1.6-2,2.9-2.4c9.7-2.3,19.3-4.7,29-7.1
		c1.1-0.3,1.9-0.1,2.6,0.7c6.6,6.7,8.6,14.6,5.8,23.7c-0.3,1-1.1,1.5-2,1.7c-9.6,2.3-19.2,4.7-28.9,7c-1.5,0.4-3,0.1-4-1.2
		c-0.9-1.2-1.9-2.5-2.6-3.9C246.7,147.5,245.6,142.4,245.3,137.9z M279.6,125.3c-2.6,7.5-0.1,16.8,5.3,21.3
		C287.3,140.9,285.6,130.7,279.6,125.3z"/>
	<linearGradient id="Medium_Segment_1_" gradientUnits="userSpaceOnUse" x1="234.0919" y1="136.9674" x2="239.6711" y2="157.7892">
		<stop  offset="0" style="stop-color:#FF3399"/>
		<stop  offset="0.1468" style="stop-color:#ED339C"/>
		<stop  offset="0.4428" style="stop-color:#BC33A4"/>
		<stop  offset="0.8576" style="stop-color:#7032B1"/>
		<stop  offset="1" style="stop-color:#5432B6"/>
	</linearGradient>
	<path id="Medium_Segment" class="st2" d="M242.8,135c-0.5,7.5,1.2,14.2,5.1,20.6c-1,0.3-1.9,0.5-2.9,0.7c-3.2,0.8-6.4,1.5-9.5,2.4
		c-1.4,0.4-2.6,0-3.4-1.1c-1-1.3-1.9-2.8-2.6-4.3c-1.7-4-2.5-8.1-1.7-12.4c0.3-1.7,1.2-2.7,3-3.1C234.8,137,238.7,136,242.8,135z"/>
	<linearGradient id="Small_Segment_1_" gradientUnits="userSpaceOnUse" x1="218.34" y1="144.2011" x2="222.207" y2="158.6329">
		<stop  offset="0" style="stop-color:#FF3399"/>
		<stop  offset="0.1468" style="stop-color:#ED339C"/>
		<stop  offset="0.4428" style="stop-color:#BC33A4"/>
		<stop  offset="0.8576" style="stop-color:#7032B1"/>
		<stop  offset="1" style="stop-color:#5432B6"/>
	</linearGradient>
	<path id="Small_Segment" class="st3" d="M219.3,159.3c-1.1,0.3-2,0.1-2.7-0.8c-2.6-3.4-3.4-7.3-2.8-11.5c0.2-1.1,0.8-1.8,2-2.1
		c3-0.7,5.8-1.4,8.9-2.1c0,5.1,1.1,9.8,3.5,14.3"/>
</g>
</svg>
