<?xml version="1.0" encoding="utf-8"?>
<!-- Generator: Adobe Illustrator 23.0.0, SVG Export Plug-In . SVG Version: 6.00 Build 0)  -->
<svg version="1.1" id="Layer_1" xmlns="http://www.w3.org/2000/svg" xmlns:xlink="http://www.w3.org/1999/xlink" x="0px" y="0px"
	 viewBox="0 0 500 320" style="enable-background:new 0 0 500 320;" xml:space="preserve">
<style type="text/css">
	.st0{fill:url(#SVGID_1_);}
	.st1{fill:#FFFFFF;}
	.st2{fill:url(#SVGID_2_);}
	.st3{fill:url(#SVGID_3_);}
	.st4{fill:url(#SVGID_4_);}
	.st5{fill:#1E1E1E;stroke:#FFFFFF;stroke-width:3;stroke-linecap:round;stroke-linejoin:round;stroke-miterlimit:10;}
</style>
<g>
	<g>
		<g id="Tripod">
			
				<linearGradient id="SVGID_1_" gradientUnits="userSpaceOnUse" x1="244.4" y1="162.4" x2="244.4" y2="119.5489" gradientTransform="matrix(1 0 0 -1 0 320)">
				<stop  offset="6.038340e-07" style="stop-color:#F80D8E"/>
				<stop  offset="0.1521" style="stop-color:#E61193"/>
				<stop  offset="0.4589" style="stop-color:#B61C9E"/>
				<stop  offset="0.8889" style="stop-color:#692DB1"/>
				<stop  offset="1" style="stop-color:#5432B6"/>
			</linearGradient>
			<path class="st0" d="M244.5,200.5c-2.5,0-4-1.5-4-4.2c0-5.8,0-11.5,0-17.3v-2.4l-3.1,4.9l-3.6,5.8c-2,3.2-4,6.4-6.1,9.7
				c-0.9,1.4-2,2.1-3.2,2.1c-0.7,0-1.5-0.2-2.3-0.8c-1.1-0.7-1.7-1.5-2-2.4s0-2,0.7-3.1c1.5-2.4,3-4.7,4.4-7.1l4.3-6.9
				c2.6-4.1,5.1-8.2,7.7-12.3c0.1-0.1,0.1-0.2,0.1-0.2c-0.2-0.3-0.3-0.5-0.4-0.7c-0.5-1.3-0.9-2.7-0.3-3.8c0.6-1.2,1.9-1.6,3.1-1.9
				c0.9-0.2,1.9-0.5,2.8-0.7c2-0.5,3.9-1,5.9-1.5c0.3-0.1,0.6-0.1,0.8-0.1c0.7,0,1.6,0.3,2.2,1.6c1.1,2.4,1.1,4.7,0,6.9
				c-0.1,0.3-0.1,0.3,0.1,0.7c5.5,8.7,10.9,17.3,16.3,26c0.7,1.2,1,2.3,0.7,3.3s-1,1.8-2.2,2.5c-0.7,0.4-1.4,0.6-2.1,0.6
				c-1.3,0-2.4-0.7-3.2-2.1c-2.3-3.6-4.5-7.2-6.8-10.8c0,0-5.3-8.4-6.1-9.7v5.5c0,4.8,0,9.6,0,14.4C248.5,199,247,200.5,244.5,200.5
				L244.5,200.5z"/>
			<path class="st1" d="M249.5,159.1c0.4,0,0.6,0.2,0.9,0.7c0.9,1.9,1,3.7,0,5.5c-0.4,0.9-0.3,1.4,0.2,2.2
				c5.5,8.7,10.9,17.3,16.3,26c1,1.6,0.7,2.7-0.9,3.7c-0.5,0.3-0.9,0.4-1.3,0.4c-0.7,0-1.4-0.5-2-1.4c-3.3-5.3-6.6-10.6-9.9-15.8
				c-1.6-2.5-3.1-5-4.7-7.5c-0.2-0.3-0.4-0.6-0.9-0.9c0,0.5-0.1,0.9-0.1,1.4c0,7.7,0,15.4,0,23c0,1.8-0.8,2.6-2.5,2.6l0,0
				c-1.7,0-2.5-0.9-2.5-2.7c0-7.7,0-15.4,0-23c0-0.4,0-0.8,0-1.3c-0.1,0-0.2,0-0.3-0.1c-1.8,2.9-3.7,5.9-5.5,8.8
				c-3.2,5.1-6.4,10.3-9.7,15.4c-0.6,1-1.2,1.4-2,1.4c-0.5,0-1-0.2-1.5-0.5c-1.5-0.9-1.7-1.9-0.8-3.4c2.1-3.4,4.2-6.8,6.4-10.2
				c3.4-5.4,6.7-10.8,10.1-16.1c0.4-0.6,0.6-1.2,0.1-1.8c-0.1-0.2-0.2-0.4-0.2-0.5c-0.9-2.4-0.6-3,1.8-3.6c2.9-0.7,5.8-1.4,8.7-2.2
				C249.2,159.1,249.4,159.1,249.5,159.1 M249.5,156.1c-0.4,0-0.8,0.1-1.2,0.2c-1.9,0.5-3.9,1-5.8,1.4c-1,0.2-1.9,0.5-2.9,0.7
				c-1.1,0.3-3.1,0.8-4.1,2.6c-1,1.9-0.2,3.9,0.2,5v0.1c0,0,0,0.1,0.1,0.1c-2.5,3.9-5,7.9-7.4,11.8l-2.4,3.8l-1.9,3
				c-1.5,2.4-3,4.8-4.5,7.2c-0.9,1.4-1.2,2.8-0.9,4.2c0.3,1.3,1.2,2.5,2.6,3.4c1.1,0.7,2.1,1,3.1,1c1.2,0,3-0.5,4.5-2.8
				c2-3.2,4-6.4,6-9.6l3.7-5.9c0.1-0.2,0.2-0.4,0.3-0.5c0,4.8,0,9.7,0,14.5c0,3.4,2.1,5.6,5.4,5.7h0.1c3.4,0,5.4-2.2,5.5-5.6
				c0-4.8,0-9.5,0-14.3v-0.3l0.1,0.2l2.9,4.7c2.3,3.7,4.7,7.4,7,11.2c1.5,2.3,3.3,2.8,4.5,2.8c0.9,0,1.9-0.3,2.8-0.8
				c1.6-0.9,2.5-2,2.9-3.4s0.1-2.9-0.9-4.4c-5.2-8.4-10.7-17-16.1-25.7c1.1-2.4,1-5.1-0.2-7.7C252.1,156.4,250.4,156.1,249.5,156.1
				L249.5,156.1z"/>
		</g>
		<g id="Small_Segment">
			
				<linearGradient id="SVGID_2_" gradientUnits="userSpaceOnUse" x1="218.0057" y1="177.2624" x2="222.6492" y2="159.9324" gradientTransform="matrix(1 0 0 -1 0 320)">
				<stop  offset="0" style="stop-color:#FF3399"/>
				<stop  offset="0.1468" style="stop-color:#ED339C"/>
				<stop  offset="0.4428" style="stop-color:#BC33A4"/>
				<stop  offset="0.8576" style="stop-color:#7032B1"/>
				<stop  offset="1" style="stop-color:#5432B6"/>
			</linearGradient>
			<path class="st2" d="M218.4,160.9c-1.2,0-2.2-0.5-3-1.5c-2.7-3.7-3.8-7.9-3.1-12.6c0.2-1.7,1.4-2.9,3.2-3.3
				c2.3-0.5,4.5-1.1,6.9-1.6l2-0.5c0.1,0,0.2,0,0.4,0c0.3,0,0.7,0.1,0.9,0.3c0.4,0.3,0.6,0.7,0.6,1.2c0,5,1.1,9.5,3.3,13.5
				c0.2,0.4,0.2,0.9,0.1,1.3c-0.2,0.4-0.6,0.7-1,0.9l-8.9,2.2C219.2,160.8,218.8,160.9,218.4,160.9z"/>
			<path class="st1" d="M224.7,142.8c0,5.1,1.1,9.8,3.5,14.3l-8.9,2.2c-0.3,0.1-0.6,0.1-0.9,0.1c-0.7,0-1.3-0.3-1.8-0.9
				c-2.6-3.4-3.4-7.3-2.8-11.5c0.2-1.1,0.8-1.8,2-2.1C218.7,144.2,221.6,143.5,224.7,142.8 M224.7,139.8c-0.2,0-0.5,0-0.7,0.1
				l-2,0.5c-2.3,0.6-4.6,1.1-6.9,1.6c-2.4,0.6-4,2.2-4.3,4.6c-0.7,5.1,0.4,9.7,3.4,13.7c1,1.4,2.5,2.1,4.2,2.1
				c0.5,0,1.1-0.1,1.6-0.2l8.9-2.2c0.9-0.2,1.6-0.9,2-1.7s0.3-1.8-0.1-2.6c-2.1-3.9-3.1-8-3.1-12.8c0-0.9-0.4-1.8-1.1-2.3
				C226,140,225.3,139.8,224.7,139.8L224.7,139.8z"/>
		</g>
		<g id="Medium_Segment">
			
				<linearGradient id="SVGID_3_" gradientUnits="userSpaceOnUse" x1="233.8277" y1="184.5143" x2="240.1833" y2="160.795" gradientTransform="matrix(1 0 0 -1 0 320)">
				<stop  offset="0" style="stop-color:#FF3399"/>
				<stop  offset="0.1468" style="stop-color:#ED339C"/>
				<stop  offset="0.4428" style="stop-color:#BC33A4"/>
				<stop  offset="0.8576" style="stop-color:#7032B1"/>
				<stop  offset="1" style="stop-color:#5432B6"/>
			</linearGradient>
			<path class="st3" d="M234.5,160.3c-1.4,0-2.7-0.6-3.5-1.8c-1-1.3-2-2.9-2.8-4.6c-2-4.6-2.6-8.9-1.8-13.2c0.4-2.3,1.8-3.8,4.2-4.3
				c2.8-0.6,5.5-1.3,8.4-2c1.2-0.3,2.4-0.6,3.6-0.9c0.1,0,0.2,0,0.4,0c0.3,0,0.7,0.1,1,0.4c0.4,0.3,0.6,0.8,0.5,1.2
				c-0.5,7.2,1.1,13.6,4.9,19.7c0.3,0.4,0.3,0.9,0.1,1.4c-0.2,0.4-0.6,0.8-1,0.9l-2.9,0.7c-0.9,0.2-1.9,0.5-2.8,0.7
				c-2.2,0.5-4.5,1.1-6.7,1.7C235.4,160.3,234.9,160.3,234.5,160.3z"/>
			<path class="st1" d="M242.8,135c-0.5,7.5,1.2,14.2,5.1,20.6c-1,0.3-1.9,0.5-2.9,0.7c-3.2,0.8-6.4,1.5-9.5,2.4
				c-0.4,0.1-0.7,0.2-1.1,0.2c-1,0-1.7-0.4-2.3-1.2c-1-1.3-1.9-2.8-2.6-4.3c-1.7-4-2.5-8.1-1.7-12.4c0.3-1.7,1.2-2.7,3-3.1
				C234.8,137,238.7,136,242.8,135 M242.8,132c-0.2,0-0.5,0-0.7,0.1c-1.2,0.3-2.4,0.6-3.6,0.9c-2.9,0.7-5.6,1.4-8.4,2
				c-3,0.6-4.8,2.5-5.3,5.5c-0.8,4.6-0.2,9.2,1.9,14.1c0.8,1.8,1.9,3.5,2.9,4.9c1.2,1.6,2.9,2.5,4.8,2.5c0.6,0,1.2-0.1,1.9-0.3
				c2.2-0.6,4.4-1.1,6.6-1.7c0.9-0.2,1.9-0.5,2.8-0.7c0.6-0.2,1.3-0.3,1.9-0.5l0.9-0.2c0.9-0.2,1.7-0.9,2.1-1.8s0.3-1.9-0.2-2.7
				c-3.6-5.8-5.1-12-4.7-18.9c0.1-1-0.3-1.9-1.1-2.5C244.2,132.2,243.5,132,242.8,132L242.8,132z M242.8,138L242.8,138L242.8,138
				L242.8,138z"/>
		</g>
		<g id="Large_Segment">
			
				<linearGradient id="SVGID_4_" gradientUnits="userSpaceOnUse" x1="262.7078" y1="194.7832" x2="270.601" y2="165.3254" gradientTransform="matrix(1 0 0 -1 0 320)">
				<stop  offset="0" style="stop-color:#FF3399"/>
				<stop  offset="0.1468" style="stop-color:#ED339C"/>
				<stop  offset="0.4428" style="stop-color:#BC33A4"/>
				<stop  offset="0.8576" style="stop-color:#7032B1"/>
				<stop  offset="1" style="stop-color:#5432B6"/>
			</linearGradient>
			<path class="st4" d="M254.2,158.1c-1.6,0-3-0.7-4-2s-2-2.6-2.7-4.1c-2-3.8-3.4-9-3.6-14c0-3.2,0.3-4.3,0.7-5.5v-0.1
				c0.4-1.6,1.9-2.9,4-3.4c10.4-2.5,19.9-4.8,28.9-7.1c0.4-0.1,0.8-0.2,1.2-0.2c1.1,0,2,0.4,2.8,1.2c7,7.1,9.1,15.6,6.2,25.2
				c-0.4,1.4-1.5,2.3-3.1,2.7c-9.6,2.3-19.2,4.7-28.9,7C255.2,158,254.7,158.1,254.2,158.1z M280.3,128.3c-1,5.4,0.5,11.5,3.8,15.5
				C285.1,139.1,283.8,132.7,280.3,128.3z"/>
			<path class="st1" d="M278.6,123.3c0.7,0,1.2,0.3,1.8,0.8c6.6,6.7,8.6,14.6,5.8,23.7c-0.3,1-1.1,1.5-2,1.7
				c-9.6,2.3-19.2,4.7-28.9,7c-0.4,0.1-0.8,0.1-1.2,0.1c-1.1,0-2.1-0.4-2.8-1.4c-0.9-1.2-1.9-2.5-2.6-3.9c-2.1-3.9-3.2-9-3.5-13.4
				c0-3,0.3-4,0.6-5.1c0.3-1.2,1.6-2,2.9-2.4c9.7-2.3,19.3-4.7,29-7.1C278.1,123.4,278.4,123.3,278.6,123.3 M284.9,146.7
				c2.4-5.8,0.8-15.9-5.3-21.3C277,132.8,279.5,142.1,284.9,146.7 M278.6,120.3L278.6,120.3c-0.5,0-1,0.1-1.6,0.2
				c-9,2.2-18.5,4.5-28.9,7.1c-2.6,0.6-4.5,2.3-5.1,4.5v0.1c-0.3,1.2-0.7,2.5-0.7,5.8c0,0.1,0,0.1,0,0.2c0.3,5.3,1.7,10.6,3.8,14.7
				c0.8,1.6,1.9,3,2.9,4.3c1.3,1.6,3.1,2.6,5.2,2.6c0.6,0,1.2-0.1,1.9-0.2c10.4-2.5,20.9-5,28.9-7c2.7-0.7,3.7-2.4,4.2-3.7
				c3.1-10.1,0.9-19.1-6.6-26.7C281.4,120.9,280.1,120.3,278.6,120.3L278.6,120.3z M282.8,138.3c-0.5-1.4-0.9-2.9-1.1-4.4
				C282.2,135.4,282.6,136.9,282.8,138.3L282.8,138.3z"/>
		</g>
	</g>
	<rect x="281.4" y="134.4" class="st5" width="1.6" height="3.7"/>
</g>
</svg>
