<?xml version="1.0" encoding="UTF-8" standalone="no"?>
<!DOCTYPE svg PUBLIC "-//W3C//DTD SVG 1.1//EN" "http://www.w3.org/Graphics/SVG/1.1/DTD/svg11.dtd">
<svg width="100%" height="100%" viewBox="0 0 1250 250" version="1.1" xmlns="http://www.w3.org/2000/svg" xmlns:xlink="http://www.w3.org/1999/xlink" xml:space="preserve" xmlns:serif="http://www.serif.com/" style="fill-rule:evenodd;clip-rule:evenodd;stroke-linejoin:round;stroke-miterlimit:2;">
    <g transform="matrix(1.04031,0,0,1,-28.7983,0)">
        <g transform="matrix(182.638,0,0,190,373.416,192.07)">
            <path d="M0.189,-0.68L0.007,-0.68L0.264,-0L0.446,-0L0.701,-0.68L0.33,-0.68L0.376,-0.54L0.471,-0.54L0.358,-0.218L0.189,-0.68Z" style="fill:white;fill-rule:nonzero;"/>
        </g>
        <g transform="matrix(182.638,0,0,190,503.271,192.07)">
            <rect x="0.08" y="-0.68" width="0.182" height="0.68" style="fill:white;fill-rule:nonzero;"/>
        </g>
        <g transform="matrix(182.638,0,0,190,565.733,192.07)">
            <path d="M0.262,-0L0.262,-0.358L0.313,-0.288L0.523,-0L0.693,-0L0.693,-0.68L0.511,-0.68L0.514,-0.311L0.462,-0.38L0.249,-0.68L0.08,-0.68L0.08,-0L0.262,-0Z" style="fill:white;fill-rule:nonzero;"/>
        </g>
        <g transform="matrix(182.638,0,0,190,706.912,192.07)">
            <path d="M0.384,-0C0.448,-0 0.504,-0.014 0.553,-0.042C0.602,-0.07 0.64,-0.11 0.668,-0.161C0.695,-0.212 0.709,-0.273 0.709,-0.344C0.709,-0.409 0.697,-0.466 0.673,-0.517C0.648,-0.567 0.612,-0.607 0.565,-0.636C0.517,-0.665 0.458,-0.68 0.388,-0.68L0.08,-0.68L0.08,-0L0.384,-0ZM0.379,-0.537C0.41,-0.537 0.436,-0.529 0.457,-0.512C0.477,-0.495 0.494,-0.472 0.504,-0.444C0.516,-0.414 0.521,-0.381 0.521,-0.344C0.521,-0.299 0.514,-0.262 0.501,-0.232C0.488,-0.202 0.47,-0.18 0.448,-0.165C0.425,-0.15 0.4,-0.143 0.372,-0.143L0.262,-0.143L0.262,-0.537L0.379,-0.537Z" style="fill:white;fill-rule:nonzero;"/>
        </g>
        <g transform="matrix(182.638,0,0,190,841.882,192.07)">
            <rect x="0.08" y="-0.68" width="0.182" height="0.68" style="fill:white;fill-rule:nonzero;"/>
        </g>
        <g transform="matrix(182.638,0,0,190,904.344,192.07)">
            <path d="M0.345,-0.259L0.462,-0.259L0.462,-0.142C0.451,-0.14 0.44,-0.139 0.429,-0.138C0.418,-0.137 0.407,-0.136 0.398,-0.136C0.37,-0.136 0.342,-0.143 0.315,-0.156C0.287,-0.169 0.264,-0.191 0.246,-0.221C0.227,-0.25 0.218,-0.289 0.218,-0.338C0.218,-0.373 0.224,-0.403 0.235,-0.429C0.246,-0.455 0.261,-0.476 0.279,-0.494C0.297,-0.51 0.317,-0.523 0.339,-0.532C0.36,-0.54 0.381,-0.544 0.401,-0.544C0.416,-0.544 0.432,-0.543 0.448,-0.542C0.464,-0.54 0.482,-0.537 0.5,-0.533C0.52,-0.529 0.541,-0.523 0.565,-0.514L0.619,-0.637C0.602,-0.649 0.58,-0.659 0.554,-0.668C0.528,-0.676 0.501,-0.682 0.474,-0.687C0.447,-0.691 0.422,-0.693 0.399,-0.693C0.349,-0.693 0.302,-0.685 0.257,-0.669C0.212,-0.653 0.173,-0.63 0.139,-0.599C0.105,-0.568 0.078,-0.531 0.059,-0.487C0.04,-0.443 0.03,-0.393 0.03,-0.337C0.03,-0.263 0.045,-0.2 0.075,-0.148C0.104,-0.096 0.146,-0.056 0.201,-0.029C0.256,-0.001 0.32,0.013 0.393,0.013C0.416,0.013 0.443,0.011 0.472,0.007C0.501,0.003 0.53,-0.003 0.558,-0.01C0.586,-0.017 0.609,-0.026 0.626,-0.037L0.626,-0.392L0.361,-0.392L0.345,-0.259Z" style="fill:white;fill-rule:nonzero;"/>
        </g>
        <g transform="matrix(182.638,0,0,190,1025.98,192.07)">
            <path d="M0.381,0.014C0.309,0.014 0.247,-0.002 0.194,-0.033C0.141,-0.064 0.101,-0.107 0.073,-0.16C0.044,-0.213 0.03,-0.272 0.03,-0.337C0.03,-0.407 0.045,-0.469 0.075,-0.523C0.105,-0.576 0.147,-0.618 0.2,-0.649C0.253,-0.679 0.313,-0.694 0.381,-0.694C0.455,-0.694 0.518,-0.678 0.571,-0.647C0.623,-0.616 0.663,-0.574 0.691,-0.521C0.719,-0.468 0.733,-0.409 0.733,-0.344C0.733,-0.274 0.718,-0.212 0.689,-0.158C0.659,-0.104 0.618,-0.062 0.565,-0.032C0.511,-0.001 0.45,0.014 0.381,0.014ZM0.38,-0.138C0.411,-0.138 0.44,-0.146 0.465,-0.161C0.49,-0.176 0.509,-0.199 0.524,-0.23C0.539,-0.261 0.546,-0.299 0.546,-0.344C0.546,-0.382 0.54,-0.416 0.527,-0.446C0.514,-0.475 0.495,-0.499 0.47,-0.516C0.446,-0.533 0.417,-0.542 0.383,-0.542C0.353,-0.542 0.325,-0.534 0.3,-0.517C0.275,-0.5 0.255,-0.476 0.239,-0.446C0.225,-0.415 0.217,-0.379 0.217,-0.338C0.217,-0.3 0.224,-0.266 0.236,-0.235C0.25,-0.205 0.268,-0.181 0.293,-0.164C0.317,-0.147 0.346,-0.138 0.38,-0.138Z" style="fill:white;fill-rule:nonzero;"/>
        </g>
    </g>
    <g transform="matrix(1,0,0,1,80.1896,13.7869)">
        <path d="M209.918,59.956C217.908,75.297 222.426,92.732 222.426,111.213C222.426,172.593 172.593,222.426 111.213,222.426C49.833,222.426 0,172.593 0,111.213C0,49.833 49.833,0 111.213,0C137.729,0 162.091,9.3 181.205,24.81C135.8,61.579 104.744,133.265 104.744,133.265C77.338,94.684 62.014,98.876 62.014,98.876C49.626,115.429 35.527,132.654 35.527,132.654C85.332,146.068 110.068,189.708 110.068,189.708C141.178,115.001 185.496,76.574 209.918,59.956Z" style="fill:url(#_Linear1);"/>
    </g>
    <defs>
        <linearGradient id="_Linear1" x1="0" y1="0" x2="1" y2="0" gradientUnits="userSpaceOnUse" gradientTransform="matrix(-2.0598e-06,222.426,-222.426,-2.0598e-06,111.213,0)"><stop offset="0" style="stop-color:rgb(0,201,255);stop-opacity:1"/><stop offset="1" style="stop-color:rgb(106,66,255);stop-opacity:1"/></linearGradient>
    </defs>
</svg>
